# xmcd
#
# Track frame offsets: 
#        150
#        16972
#        33015
#        46260
#        57312
#        76310
#        95035
#        113570
#        132772
#        151232
#        172800
#        190092
#
# Disc length: 2704 seconds
#
# Revision: 0
# Processed by: cddbd v1.5.2PL0 Copyright (c) Steve Scherf et al.
# Submitted via: ExactAudioCopy v0.99pb3
#
DISCID=850a8e0c
DTITLE=Gene Taylor - Gene Taylor
DYEAR=2003
DGENRE=Blues
TTITLE0=Pinetop's Boogie Woogie
TTITLE1=Sugar Bee
TTITLE2=Mississippi Heavy Water Blues
TTITLE3=Pete's Thing
TTITLE4=Blues For Jerry West
TTITLE5=Sante Fe
TTITLE6=Honky-Tonk Train Blues
TTITLE7=Six Weeks Old Blues
TTITLE8=This World
TTITLE9=The Loser And The Wheel
TTITLE10=YA-YA
TTITLE11=Is There Peace
EXTD=
EXTT0=
EXTT1=
EXTT2=
EXTT3=
EXTT4=
EXTT5=
EXTT6=
EXTT7=
EXTT8=
EXTT9=
EXTT10=
EXTT11=
PLAYORDER=
